<?xml version="1.0" standalone="no"?>
<!DOCTYPE svg PUBLIC "-//W3C//DTD SVG 20010904//EN"
 "http://www.w3.org/TR/2001/REC-SVG-20010904/DTD/svg10.dtd">
<svg version="1.0" xmlns="http://www.w3.org/2000/svg"
 width="250.000000pt" height="250.000000pt" viewBox="0 0 250.000000 250.000000"
 preserveAspectRatio="xMidYMid meet">
<metadata>
Created by potrace 1.14, written by Peter Selinger 2001-2017
</metadata>
<g transform="translate(0.000000,250.000000) scale(0.100000,-0.100000)"
fill="#000000" stroke="none">
<path d="M1050 2484 c-474 -85 -844 -404 -990 -854 -28 -89 -33 -108 -50 -220
-9 -58 -6 -314 5 -365 74 -361 254 -640 536 -830 225 -151 453 -217 734 -210
77 2 151 6 165 9 14 3 39 8 55 12 362 71 696 330 865 671 85 172 121 321 125
523 8 361 -111 658 -364 910 -184 183 -381 291 -633 346 -97 21 -349 26 -448
8z"/>
</g>
</svg>
